<svg width="100" height="100" viewBox="0 0 100 100" fill="none" xmlns="http://www.w3.org/2000/svg">
<path d="M50 0C77.6166 0 100 22.3936 100 50C100 77.6064 77.6166 100 50 100C22.3834 100 0 77.6064 0 50C0 22.3936 22.3834 0 50 0Z" fill="url(#paint0_linear_5_9)"/>
<path d="M73.9896 20.8511C75.7512 20.8511 76.6321 21.7553 76.6321 23.5638V33.6702C76.6321 34.5213 76.4248 35.2128 75.9585 35.6915C75.544 36.1702 74.8704 36.383 73.9896 36.383H50.9844C50.1554 36.383 49.4818 36.5958 49.0155 37.0745C48.5492 37.5 48.3419 38.1915 48.3419 39.0958V81.3298C48.3419 82.1809 48.1347 82.8723 47.6683 83.3511C47.2538 83.8298 46.5803 84.0426 45.6994 84.0426H35.3367C34.5077 84.0426 33.8341 83.8298 33.3678 83.3511C32.9015 82.8723 32.6942 82.2341 32.6942 81.3298V23.5638C32.6942 22.6596 32.9533 21.9681 33.3678 21.5426C33.8341 21.117 34.4559 20.8511 35.3367 20.8511H73.9896Z" fill="black"/>
<path d="M54.3524 55.2128C47.7721 54.6809 15.8032 60 13.3679 54.2021C9.3783 44.5213 43.0052 50 47.513 50.1064C49.7928 50.1596 52.5907 50.6383 54.197 50.1596C55.3369 49.8404 56.1141 47.9255 57.3576 47.1809C60.2073 45.4787 64.7669 46.4362 68.7047 46.7553C71.399 46.9681 73.9897 47.2873 76.7876 47.4468C72.798 48.0319 68.4975 48.617 64.2488 49.149C63.7306 49.2021 62.9534 49.0426 62.6426 49.5745C66.9431 50.266 71.7617 50.4255 76.4768 50.7979C71.9172 51.4894 66.7358 51.649 62.2281 52.5532C62.5389 53.0851 63.3161 52.9255 63.8343 52.9787C67.8757 53.2979 72.2799 53.617 76.4768 53.883C72.0726 54.6277 66.9949 54.7341 62.6944 55.6383C62.798 56.3298 63.7825 56.117 64.197 56.1702C68.1866 56.649 72.6944 57.2341 76.8395 57.6064C72.2799 57.9787 66.6322 59.0426 61.8654 59.3617C58.2902 59.6277 56.1659 57.4468 54.3524 55.2128Z" fill="black"/>
<path d="M43.0052 55.7448C48.0829 55.3192 52.3834 54.9469 54.4041 55.1065H54.4559C55.3368 56.2235 56.3212 57.3405 57.5129 58.1384C58.7046 58.9363 60.1554 59.415 61.9689 59.3086C64.5596 59.149 67.4611 58.7767 70.2591 58.3512C72.2798 58.0852 74.2487 57.8192 76.114 57.6065C74.3005 57.4469 72.4352 57.2341 70.5699 57.0214C68.3938 56.7554 66.2694 56.4895 64.3005 56.2767H63.9896C63.5233 56.2767 62.8497 56.2767 62.7461 55.6916V55.6384H62.7979C65.2331 55.1597 67.8756 54.8937 70.5181 54.6278C72.3316 54.4682 74.1451 54.2554 75.8549 54.0427C72.6943 53.8299 69.3782 53.6171 66.2694 53.3512L63.9378 53.1916H63.5751C63.1088 53.1916 62.5388 53.1916 62.2798 52.7129L62.228 52.6065H62.3316C64.8704 52.0746 67.6166 51.8086 70.3627 51.5958C72.228 51.4363 74.0932 51.2235 75.8549 51.0107L73.057 50.8512C69.5337 50.6384 65.9585 50.4256 62.7461 49.8937H62.6425L62.6943 49.7873C62.9533 49.3086 63.4715 49.3086 63.9378 49.3086H64.3523L67.772 48.8299C70.6217 48.4575 73.4715 48.0852 76.1658 47.6597C74.5596 47.5533 72.9533 47.3937 71.3471 47.2341C70.5181 47.181 69.6891 47.0746 68.8083 47.0214C68.1347 46.9682 67.4093 46.8618 66.6839 46.8086C63.316 46.4363 59.7927 46.0639 57.5129 47.4469C56.943 47.7661 56.4767 48.3512 56.0103 48.9363C55.4922 49.6278 54.9741 50.2661 54.3005 50.4256C53.1606 50.7448 51.5026 50.6384 49.7927 50.4788C49.0155 50.4256 48.2901 50.3724 47.5647 50.3724C46.7875 50.3724 45.1813 50.1597 43.0052 49.9469C35.3368 49.149 21.0363 47.6065 15.4404 50.0533C13.4715 50.9044 12.6425 52.2341 13.4715 54.3086C15.1295 58.1384 31.2435 56.7554 43.0052 55.7448ZM54.3523 55.2661C52.3834 55.1065 48.0829 55.4788 43.0052 55.9044C31.1917 56.915 15.0259 58.298 13.316 54.2022C12.4352 52.0746 13.316 50.6384 15.3368 49.7341C20.9844 47.2341 35.285 48.7767 42.9533 49.5746C45.0777 49.7873 46.6839 50.0001 47.4611 50.0001C48.1865 50.0001 48.9119 50.0533 49.6891 50.1065C51.3471 50.2129 53.057 50.3724 54.1451 50.0533C54.715 49.8937 55.2331 49.2554 55.7513 48.6171C56.2176 48.032 56.6839 47.4469 57.3057 47.0746C59.6373 45.6384 63.1606 46.0639 66.5803 46.4363C67.3057 46.5427 68.0311 46.5958 68.7046 46.649C69.5337 46.7022 70.3627 46.8086 71.2435 46.8618C73.057 47.0214 74.8704 47.2341 76.7875 47.3405L77.5129 47.3937L76.7875 47.5001C73.886 47.9256 70.7772 48.3512 67.6684 48.7767L64.2487 49.2554H63.8342C63.4715 49.2554 63.057 49.2554 62.7979 49.5746C65.9585 50.0533 69.4818 50.3192 72.9534 50.532C74.1451 50.5852 75.3368 50.6916 76.4767 50.7448L77.1502 50.798L76.4767 50.9044C74.5078 51.2235 72.3834 51.4363 70.2591 51.5958C67.5648 51.8618 64.8704 52.1278 62.3316 52.6065C62.5907 52.8724 63.057 52.8724 63.4715 52.8724H63.8342L66.1658 53.032C69.5337 53.298 73.057 53.5639 76.4767 53.7235L77.202 53.7767L76.4767 53.8831C74.5596 54.2022 72.487 54.415 70.4145 54.6278C67.8238 54.8937 65.1813 55.1597 62.7979 55.6384C62.9015 56.0639 63.4715 56.0107 63.8342 56.0107H64.1969C66.2176 56.2767 68.3419 56.5427 70.4663 56.7554C72.5907 57.0214 74.7668 57.2341 76.8394 57.4469V57.6065C74.7668 57.7661 72.487 58.0852 70.1554 58.4044C67.3575 58.7767 64.4559 59.2022 61.8653 59.3618C60 59.4682 58.5492 58.9895 57.3575 58.1916C56.2176 57.5001 55.2331 56.3831 54.3523 55.2661Z" fill="white"/>
<defs>
<linearGradient id="paint0_linear_5_9" x1="0" y1="50" x2="100" y2="50" gradientUnits="userSpaceOnUse">
<stop stop-color="#EC008C"/>
<stop offset="1" stop-color="#FC6767"/>
</linearGradient>
</defs>
</svg>
